<svg version="1.1" xmlns="http://www.w3.org/2000/svg" viewBox="0 0 61.07321186939839 73.07319661060927" width="61.07321186939839" height="73.07319661060927" filter="invert(93%) hue-rotate(180deg)">
  <!-- svg-source:excalidraw -->
  
  <defs>
    <style class="style-fonts">
      @font-face {
        font-family: "Virgil";
        src: url("https://excalidraw.com/Virgil.woff2");
      }
      @font-face {
        font-family: "Cascadia";
        src: url("https://excalidraw.com/Cascadia.woff2");
      }
    </style>
  </defs>
  <g stroke-linecap="round" transform="translate(10 10) rotate(0 17.99999237060547 17.99999237060547)"><path d="M36 18 C36 19.04, 35.91 20.1, 35.73 21.13 C35.55 22.15, 35.27 23.18, 34.91 24.16 C34.56 25.14, 34.11 26.1, 33.59 27 C33.07 27.9, 32.46 28.77, 31.79 29.57 C31.12 30.37, 30.37 31.12, 29.57 31.79 C28.77 32.46, 27.9 33.07, 27 33.59 C26.1 34.11, 25.14 34.56, 24.16 34.91 C23.18 35.27, 22.15 35.55, 21.13 35.73 C20.1 35.91, 19.04 36, 18 36 C16.96 36, 15.9 35.91, 14.87 35.73 C13.85 35.55, 12.82 35.27, 11.84 34.91 C10.86 34.56, 9.9 34.11, 9 33.59 C8.1 33.07, 7.23 32.46, 6.43 31.79 C5.63 31.12, 4.88 30.37, 4.21 29.57 C3.54 28.77, 2.93 27.9, 2.41 27 C1.89 26.1, 1.44 25.14, 1.09 24.16 C0.73 23.18, 0.45 22.15, 0.27 21.13 C0.09 20.1, 0 19.04, 0 18 C0 16.96, 0.09 15.9, 0.27 14.87 C0.45 13.85, 0.73 12.82, 1.09 11.84 C1.44 10.86, 1.89 9.9, 2.41 9 C2.93 8.1, 3.54 7.23, 4.21 6.43 C4.88 5.63, 5.63 4.88, 6.43 4.21 C7.23 3.54, 8.1 2.93, 9 2.41 C9.9 1.89, 10.86 1.44, 11.84 1.09 C12.82 0.73, 13.85 0.45, 14.87 0.27 C15.9 0.09, 16.96 0, 18 0 C19.04 0, 20.1 0.09, 21.13 0.27 C22.15 0.45, 23.18 0.73, 24.16 1.09 C25.14 1.44, 26.1 1.89, 27 2.41 C27.9 2.93, 28.77 3.54, 29.57 4.21 C30.37 4.88, 31.12 5.63, 31.79 6.43 C32.46 7.23, 33.07 8.1, 33.59 9 C34.11 9.9, 34.56 10.86, 34.91 11.84 C35.27 12.82, 35.55 13.85, 35.73 14.87 C35.91 15.9, 35.95 17.48, 36 18 C36.05 18.52, 36.05 17.48, 36 18" stroke="#000000" stroke-width="4" fill="none"></path></g><g stroke-linecap="round"><g transform="translate(36.8908692765645 44.16340648683078) rotate(0 7.091171296416945 9.454895061889246)"><path d="M0 0 C2.36 3.15, 11.82 15.76, 14.18 18.91 M0 0 C2.36 3.15, 11.82 15.76, 14.18 18.91" stroke="#000000" stroke-width="4" fill="none"></path></g></g><mask></mask></svg>